<?xml version="1.0" standalone="no"?><!DOCTYPE svg PUBLIC "-//W3C//DTD SVG 1.1//EN" "http://www.w3.org/Graphics/SVG/1.1/DTD/svg11.dtd"><svg t="1743420091969" class="icon" viewBox="0 0 1478 1024" version="1.1" xmlns="http://www.w3.org/2000/svg" p-id="16360" xmlns:xlink="http://www.w3.org/1999/xlink" width="369.5" height="256"><path d="M487.257 777.517l-198.662-21.175a515.093 515.093 0 0 0 379.004 266.706 846.989 846.989 0 0 1-180.342-245.055zM664.506 5.71a514.855 514.855 0 0 0-371.629 258.38l194.617-19.272A821.532 821.532 0 0 1 664.506 5.71z m0 0z m73.04 241.725L740.64 0a832.714 832.714 0 0 0-209.843 245.294z m-523.42 335.94L82.558 322.617 0 321.665v356.878h71.375v-261.71l142.751 261.71h70.9l0.476-356.878h-71.376v261.71z m404.461-190.334v-71.376H380.67v356.878h237.918v-71.376H452.045V512h118.959v-47.584h-118.96v-71.375h166.543z m167.257 285.502h70.662l62.572-274.32 56.387 274.32h71.375l95.167-356.878h-71.375l-58.29 261.473-60.67-261.473h-71.375l-54.483 261.71-64.476-261.71h-71.375l95.88 356.878zM767.524 0l-2.617 247.435 195.33 1.903A824.862 824.862 0 0 0 767.525 0z m417.309 252.193z m-182.008-1.903l182.008 1.903A515.569 515.569 0 0 0 802.974 3.331a628.342 628.342 0 0 1 199.851 246.959zM805.83 1023.048A514.38 514.38 0 0 0 1189.591 768l-197.71 14.989a852.937 852.937 0 0 1-186.052 240.06zM767.05 780.61l-2.618 236.015a832.714 832.714 0 0 0 183.673-234.112z m180.817 1.903h0.238-0.238z m503.435-273.368a270.275 270.275 0 0 0-106.111-38.78 372.818 372.818 0 0 1-71.376-20.462 25.695 25.695 0 0 1-16.892-23.791 38.067 38.067 0 0 1 16.892-32.595 78.75 78.75 0 0 1 45.443-10.945 96.357 96.357 0 0 1 54.483 14.276 47.584 47.584 0 0 1 22.364 38.066h74.23a106.35 106.35 0 0 0-41.397-78.037 152.03 152.03 0 0 0-96.595-35.212 181.294 181.294 0 0 0-107.539 31.168 91.836 91.836 0 0 0-39.257 77.085 72.803 72.803 0 0 0 27.837 64.476 343.316 343.316 0 0 0 115.866 39.257 230.543 230.543 0 0 1 61.383 19.27 30.216 30.216 0 0 1 14.513 28.075 33.309 33.309 0 0 1-20.937 29.502 123.717 123.717 0 0 1-57.338 10.23 92.788 92.788 0 0 1-55.197-14.75 50.914 50.914 0 0 1-20.699-41.16h-73.517a105.398 105.398 0 0 0 40.922 83.985 175.584 175.584 0 0 0 108.015 30.454 190.335 190.335 0 0 0 109.918-26.647 85.888 85.888 0 0 0 41.398-74.469 79.94 79.94 0 0 0-26.409-68.996z m-713.755 507.004l2.855-236.015-209.843-2.141a855.078 855.078 0 0 0 206.988 238.156z" fill="#009688" p-id="16361"></path></svg>